<svg xmlns="http://www.w3.org/2000/svg" width="512" height="512" version="1"><g transform="translate(0 -611)"><path d="M40 1051V683l32-32h368l32 32v368l-32 32H72z" fill="#ffd325"/><path d="M40 683l32-32v32z" fill="#fff536"/><path d="M72 651v32h368v-32z" fill="#ffef2d"/><path d="M440 651l32 32h-32z" fill="#fecd36"/><path d="M440 683h32v368h-32z" fill="#d2a32b"/><path d="M440 1051h32l-32 32z" fill="#b88e32"/><path d="M440 1051v32H72v-32z" fill="#b48b28"/><path d="M40 1051h32v32z" fill="#d2a531"/><path d="M72 1051H40V683h32z" fill="#ffdf2c"/><path d="M40 1051V683l32-32h368l32 32v368l-32 32H72z" fill="none" stroke="#000" stroke-width="8" stroke-linecap="round" stroke-linejoin="round"/><path d="M120 843v-88l40-40h192l40 40v96l-40 40h-56v56h-80v-64l40-40h56v-80H200v80zM216 963h80v56h-80z" fill="#e8ebe5" stroke="#000" stroke-width="8" stroke-linecap="round" stroke-linejoin="round"/><circle cx="96" cy="707" r="16" fill="#b48b28" stroke="#000" stroke-width="8" stroke-linecap="round" stroke-linejoin="round"/><circle cx="416" cy="707" r="16" fill="#b48b28" stroke="#000" stroke-width="8" stroke-linecap="round" stroke-linejoin="round"/><circle cx="416" cy="1027" r="16" fill="#b48b28" stroke="#000" stroke-width="8" stroke-linecap="round" stroke-linejoin="round"/><circle cx="96" cy="1027" r="16" fill="#b48b28" stroke="#000" stroke-width="8" stroke-linecap="round" stroke-linejoin="round"/></g></svg>
